<mxfile host="app.diagrams.net" agent="Mozilla/5.0 (Macintosh; Intel Mac OS X 10_15_7) AppleWebKit/537.36 (KHTML, like Gecko) Chrome/136.0.0.0 Safari/537.36" version="27.0.5">
  <diagram name="Page-1" id="1rQfDiHg1om-UEj6KufO">
    <mxGraphModel dx="1216" dy="813" grid="1" gridSize="10" guides="1" tooltips="1" connect="1" arrows="1" fold="1" page="1" pageScale="1" pageWidth="850" pageHeight="1100" background="light-dark(#FFFFFF,#FFFFFF)" math="0" shadow="1">
      <root>
        <mxCell id="0" />
        <mxCell id="1" parent="0" />
        <mxCell id="QRISFsCbMV7mXxoAjQTP-1" value="Customer&lt;div&gt;&lt;br&gt;&lt;/div&gt;" style="shape=umlActor;verticalLabelPosition=bottom;verticalAlign=top;html=1;outlineConnect=0;strokeColor=light-dark(#000000,#000000);fontColor=light-dark(#000000,#000000);" parent="1" vertex="1">
          <mxGeometry x="70" y="100" width="30" height="60" as="geometry" />
        </mxCell>
        <mxCell id="QRISFsCbMV7mXxoAjQTP-4" value="Register/Login" style="rounded=1;whiteSpace=wrap;html=1;fillColor=none;strokeColor=light-dark(#000000,#000000);fontColor=light-dark(#000000,#000000);" parent="1" vertex="1">
          <mxGeometry x="260" y="40" width="120" height="60" as="geometry" />
        </mxCell>
        <mxCell id="QRISFsCbMV7mXxoAjQTP-5" value="View Tables" style="rounded=1;whiteSpace=wrap;html=1;fillColor=none;strokeColor=light-dark(#000000,#000000);fontColor=light-dark(#000000,#000000);" parent="1" vertex="1">
          <mxGeometry x="260" y="130" width="120" height="60" as="geometry" />
        </mxCell>
        <mxCell id="QRISFsCbMV7mXxoAjQTP-6" value="Make Reservation" style="rounded=1;whiteSpace=wrap;html=1;fillColor=none;strokeColor=light-dark(#000000,#000000);fontColor=light-dark(#000000,#000000);" parent="1" vertex="1">
          <mxGeometry x="260" y="220" width="120" height="60" as="geometry" />
        </mxCell>
        <mxCell id="QRISFsCbMV7mXxoAjQTP-7" value="Make Payment" style="rounded=1;whiteSpace=wrap;html=1;fillColor=none;strokeColor=light-dark(#EDEDED,#000000);fontColor=light-dark(#000000,#000000);" parent="1" vertex="1">
          <mxGeometry x="260" y="310" width="120" height="60" as="geometry" />
        </mxCell>
        <mxCell id="QRISFsCbMV7mXxoAjQTP-8" value="Manage Availability" style="rounded=1;whiteSpace=wrap;html=1;fillColor=light-dark(#FFFFFF,#FFFFFF);strokeColor=light-dark(#000000,#000000);fontColor=light-dark(#000000,#000000);" parent="1" vertex="1">
          <mxGeometry x="260" y="400" width="120" height="60" as="geometry" />
        </mxCell>
        <mxCell id="QRISFsCbMV7mXxoAjQTP-9" value="&lt;font style=&quot;color: light-dark(rgb(0, 0, 0), rgb(0, 0, 0));&quot;&gt;Approve/Reject&lt;/font&gt;" style="rounded=1;whiteSpace=wrap;html=1;fillColor=light-dark(#FFFFFF,#FFFFFF);strokeColor=light-dark(#000000,#000000);" parent="1" vertex="1">
          <mxGeometry x="260" y="480" width="120" height="60" as="geometry" />
        </mxCell>
        <mxCell id="QRISFsCbMV7mXxoAjQTP-10" value="&lt;font style=&quot;color: light-dark(rgb(0, 0, 0), rgb(0, 0, 0));&quot;&gt;View Reservations&lt;/font&gt;" style="rounded=1;whiteSpace=wrap;html=1;fillColor=light-dark(#FFFFFF,#FFFFFF);strokeColor=light-dark(#000000,#000000);" parent="1" vertex="1">
          <mxGeometry x="260" y="550" width="120" height="60" as="geometry" />
        </mxCell>
        <mxCell id="QRISFsCbMV7mXxoAjQTP-11" value="Manage Payments" style="rounded=1;whiteSpace=wrap;html=1;fillColor=light-dark(#FFFFFF,#FFFFFF);strokeColor=light-dark(#000000,#000000);fontColor=light-dark(#000000,#000000);" parent="1" vertex="1">
          <mxGeometry x="260" y="620" width="120" height="60" as="geometry" />
        </mxCell>
        <mxCell id="QRISFsCbMV7mXxoAjQTP-12" value="View Reports" style="rounded=1;whiteSpace=wrap;html=1;fillColor=light-dark(#FFFFFF,#FFFFFF);strokeColor=light-dark(#000000,#000000);fontColor=light-dark(#000000,#000000);" parent="1" vertex="1">
          <mxGeometry x="260" y="700" width="120" height="60" as="geometry" />
        </mxCell>
        <mxCell id="QRISFsCbMV7mXxoAjQTP-15" value="Manager" style="shape=umlActor;verticalLabelPosition=bottom;verticalAlign=top;html=1;outlineConnect=0;strokeColor=light-dark(#000000,#000000);fontColor=light-dark(#000000,#000000);" parent="1" vertex="1">
          <mxGeometry x="620" y="330" width="30" height="60" as="geometry" />
        </mxCell>
        <mxCell id="QRISFsCbMV7mXxoAjQTP-16" value="Admin" style="shape=umlActor;verticalLabelPosition=bottom;verticalAlign=top;html=1;outlineConnect=0;strokeColor=light-dark(#000000,#000000);fontColor=light-dark(#000000,#000000);" parent="1" vertex="1">
          <mxGeometry x="70" y="630" width="30" height="60" as="geometry" />
        </mxCell>
        <mxCell id="QRISFsCbMV7mXxoAjQTP-28" value="" style="endArrow=none;html=1;rounded=0;strokeColor=light-dark(#000000,#000000);" parent="1" edge="1">
          <mxGeometry width="50" height="50" relative="1" as="geometry">
            <mxPoint x="120" y="150" as="sourcePoint" />
            <mxPoint x="230" y="70" as="targetPoint" />
          </mxGeometry>
        </mxCell>
        <mxCell id="QRISFsCbMV7mXxoAjQTP-29" value="" style="endArrow=none;html=1;rounded=0;strokeColor=light-dark(#000000,#000000);" parent="1" edge="1">
          <mxGeometry width="50" height="50" relative="1" as="geometry">
            <mxPoint x="130" y="150" as="sourcePoint" />
            <mxPoint x="230" y="150" as="targetPoint" />
          </mxGeometry>
        </mxCell>
        <mxCell id="QRISFsCbMV7mXxoAjQTP-30" value="" style="endArrow=none;html=1;rounded=0;strokeColor=light-dark(#000000,#000000);" parent="1" edge="1">
          <mxGeometry width="50" height="50" relative="1" as="geometry">
            <mxPoint x="130" y="160" as="sourcePoint" />
            <mxPoint x="250" y="250" as="targetPoint" />
          </mxGeometry>
        </mxCell>
        <mxCell id="QRISFsCbMV7mXxoAjQTP-31" value="" style="endArrow=none;html=1;rounded=0;strokeColor=light-dark(#000000,#000000);" parent="1" edge="1">
          <mxGeometry width="50" height="50" relative="1" as="geometry">
            <mxPoint x="120" y="160" as="sourcePoint" />
            <mxPoint x="250" y="340" as="targetPoint" />
          </mxGeometry>
        </mxCell>
        <mxCell id="QRISFsCbMV7mXxoAjQTP-32" value="" style="endArrow=none;html=1;rounded=0;strokeColor=light-dark(#000000,#000000);" parent="1" edge="1">
          <mxGeometry width="50" height="50" relative="1" as="geometry">
            <mxPoint x="400" y="430" as="sourcePoint" />
            <mxPoint x="610" y="370" as="targetPoint" />
          </mxGeometry>
        </mxCell>
        <mxCell id="QRISFsCbMV7mXxoAjQTP-33" value="" style="endArrow=none;html=1;rounded=0;strokeColor=light-dark(#000000,#000000);" parent="1" edge="1">
          <mxGeometry width="50" height="50" relative="1" as="geometry">
            <mxPoint x="390" y="70" as="sourcePoint" />
            <mxPoint x="610" y="370" as="targetPoint" />
          </mxGeometry>
        </mxCell>
        <mxCell id="QRISFsCbMV7mXxoAjQTP-34" value="" style="endArrow=none;html=1;rounded=0;strokeColor=light-dark(#000000,#000000);" parent="1" edge="1">
          <mxGeometry width="50" height="50" relative="1" as="geometry">
            <mxPoint x="390" y="510" as="sourcePoint" />
            <mxPoint x="610" y="370" as="targetPoint" />
          </mxGeometry>
        </mxCell>
        <mxCell id="QRISFsCbMV7mXxoAjQTP-36" value="" style="endArrow=none;html=1;rounded=0;strokeColor=light-dark(#000000,#000000);" parent="1" edge="1">
          <mxGeometry width="50" height="50" relative="1" as="geometry">
            <mxPoint x="120" y="660" as="sourcePoint" />
            <mxPoint x="250" y="640" as="targetPoint" />
          </mxGeometry>
        </mxCell>
        <mxCell id="QRISFsCbMV7mXxoAjQTP-37" value="" style="endArrow=none;html=1;rounded=0;strokeColor=light-dark(#000000,#000000);" parent="1" edge="1">
          <mxGeometry width="50" height="50" relative="1" as="geometry">
            <mxPoint x="120" y="670" as="sourcePoint" />
            <mxPoint x="240" y="730" as="targetPoint" />
          </mxGeometry>
        </mxCell>
        <mxCell id="QRISFsCbMV7mXxoAjQTP-38" value="" style="endArrow=none;html=1;rounded=0;strokeColor=light-dark(#000000,#000000);" parent="1" edge="1">
          <mxGeometry width="50" height="50" relative="1" as="geometry">
            <mxPoint x="390" y="580" as="sourcePoint" />
            <mxPoint x="610" y="380" as="targetPoint" />
          </mxGeometry>
        </mxCell>
      </root>
    </mxGraphModel>
  </diagram>
</mxfile>
